<svg width="453" height="454" xmlns="http://www.w3.org/2000/svg" xmlns:xlink="http://www.w3.org/1999/xlink" xml:space="preserve" overflow="hidden"><g transform="translate(-741 -133)"><path d="M349.612 243.063C336.167 236.302 322.143 230.759 307.71 226.5 322.143 222.241 336.167 216.698 349.612 209.937 371.44 196.934 379.054 168.983 366.836 146.706 360.637 136.043 350.45 128.284 338.523 125.141 326.714 121.792 314.053 123.358 303.416 129.482 289.144 139.285 276.091 150.754 264.533 163.646 269.839 147.193 273.151 130.162 274.395 112.92 273.581 87.4974 252.312 67.5484 226.89 68.3624 202.611 69.1396 183.11 88.6408 182.333 112.92 183.554 130.165 186.865 147.199 192.195 163.646 180.634 150.74 167.563 139.27 153.265 129.482 142.629 123.353 129.966 121.787 118.158 125.141 106.233 128.289 96.0478 136.046 89.845 146.706 77.6267 168.983 85.2404 196.934 107.068 209.937 120.607 216.71 134.725 222.253 149.254 226.5 134.838 230.766 120.831 236.309 107.399 243.063 85.5708 256.066 77.9571 284.017 90.1753 306.294 96.3781 316.954 106.563 324.711 118.488 327.859 122.578 328.976 126.799 329.547 131.04 329.557 138.961 329.581 146.746 327.496 153.595 323.517 167.894 313.73 180.964 302.26 192.525 289.354 187.196 305.801 183.884 322.835 182.663 340.08 183.477 365.503 204.746 385.452 230.168 384.638 254.447 383.86 273.948 364.359 274.726 340.08 273.481 322.838 270.17 305.807 264.863 289.354 276.421 302.246 289.474 313.715 303.746 323.517 310.615 327.492 318.413 329.576 326.349 329.557 330.574 329.55 334.779 328.979 338.853 327.859 350.781 324.716 360.967 316.957 367.166 306.294 379.327 283.932 371.56 255.955 349.612 243.063ZM228.482 272.791C202.916 272.765 182.212 252.019 182.238 226.453 182.264 200.887 203.011 180.183 228.576 180.209 254.124 180.235 274.82 200.953 274.82 226.5 274.794 252.073 254.055 272.791 228.482 272.791Z" fill="#FFFFFF" transform="matrix(1 0 0 1.00221 741 133)"/></g></svg>